<svg width="16" height="16" viewBox="0 0 16 16" fill="none" xmlns="http://www.w3.org/2000/svg">
<path d="M7.854 1.14689C7.80756 1.10033 7.75238 1.06339 7.69163 1.03818C7.63089 1.01297 7.56577 1 7.5 1C7.43423 1 7.36911 1.01297 7.30837 1.03818C7.24762 1.06339 7.19245 1.10033 7.146 1.14689L1.146 7.14689C1.0996 7.19341 1.06282 7.24862 1.03777 7.30936C1.01272 7.3701 0.999883 7.43519 1 7.50089V14.5009C1 14.6335 1.05268 14.7607 1.14645 14.8544C1.24022 14.9482 1.36739 15.0009 1.5 15.0009H6C6.13261 15.0009 6.25979 14.9482 6.35355 14.8544C6.44732 14.7607 6.5 14.6335 6.5 14.5009V10.5009H8.5V14.5009C8.5 14.6335 8.55268 14.7607 8.64645 14.8544C8.74022 14.9482 8.86739 15.0009 9 15.0009H13.5C13.6326 15.0009 13.7598 14.9482 13.8536 14.8544C13.9473 14.7607 14 14.6335 14 14.5009V7.50089C14.0001 7.43519 13.9873 7.3701 13.9622 7.30936C13.9372 7.24862 13.9004 7.19341 13.854 7.14689L12.5 5.79389V2.50089C12.5 2.36829 12.4473 2.24111 12.3536 2.14734C12.2598 2.05357 12.1326 2.00089 12 2.00089H11C10.8674 2.00089 10.7402 2.05357 10.6464 2.14734C10.5527 2.24111 10.5 2.36829 10.5 2.50089V3.79389L7.854 1.14689ZM2 14.0009V7.70789L7.5 2.20789L13 7.70789V14.0009H9.5V10.0009C9.5 9.86829 9.44732 9.74111 9.35355 9.64734C9.25979 9.55357 9.13261 9.50089 9 9.50089H6C5.86739 9.50089 5.74022 9.55357 5.64645 9.64734C5.55268 9.74111 5.5 9.86829 5.5 10.0009V14.0009H2Z" fill="white"/>
</svg>
